<svg xmlns="http://www.w3.org/2000/svg" viewBox="0 0 151.81 151.81"><defs><style>.cls-1{fill:#f62016;}.cls-2{fill:#fff;}</style></defs><g id="Layer_2" data-name="Layer 2"><g id="Layer_1-2" data-name="Layer 1"><circle class="cls-1" cx="75.9" cy="75.9" r="75.9"/><path class="cls-2" d="M87.51,54.56H66.41a2.07,2.07,0,0,0-2-1.79H58.55a2.09,2.09,0,0,0-2.09,2.09v46.85a2.09,2.09,0,0,0,2.09,2.09h5.83a2.1,2.1,0,0,0,2.09-2.09V82.23H99.09a2.09,2.09,0,0,0,2.09-2.09V56.65a2.08,2.08,0,0,0-2.09-2.09ZM97,62.19H89.6V58.74H97Zm0,8.23H89.6v-4H97Zm-30.53-4h7.4v4h-7.4Zm0-4.18V58.74h7.4v3.45Zm11.58,4.18h7.37v4H78.05Zm7.37-7.63v3.45H78.05V58.74ZM62.29,99.62H60.64V57h1.65V99.62Zm4.18-25h7.4v3.45h-7.4Zm11.58,3.45V74.6h7.37v3.45Zm11.55,0V74.6H97v3.45Z"/></g></g></svg>