<svg xmlns="http://www.w3.org/2000/svg" viewBox="0 0 151.81 151.81"><defs><style>.cls-1{fill:#f62016;}.cls-2{fill:#fff;}</style></defs><g id="Layer_2" data-name="Layer 2"><g id="Layer_1-2" data-name="Layer 1"><circle class="cls-1" cx="75.9" cy="75.9" r="75.9"/><path class="cls-2" d="M63.76,82a4.31,4.31,0,0,0-4.31,4.3V89.2h-.19a4.72,4.72,0,0,0-4.71,4.71v4.31a4.72,4.72,0,0,0,4.71,4.71H92.54a4.71,4.71,0,0,0,4.71-4.71V93.91a4.71,4.71,0,0,0-4.71-4.71h-.19V86.32a4.31,4.31,0,0,0-4.3-4.3H80.69V67.64a9.32,9.32,0,1,0-9.57,0V82ZM93,93.91v4.31a.44.44,0,0,1-.44.44H59.26a.44.44,0,0,1-.44-.44V93.91a.44.44,0,0,1,.44-.44H92.54A.44.44,0,0,1,93,93.91Zm-4.9-7.59V89.2H63.74l0-2.91ZM75.9,54.64a5,5,0,1,1-5,5A5.06,5.06,0,0,1,75.9,54.64ZM75.39,69h1V82h-1Z"/></g></g></svg>