<svg xmlns="http://www.w3.org/2000/svg" viewBox="0 0 48.56 48.55"><defs><style>.cls-1{fill:#bababa;}</style></defs><g id="Layer_2" data-name="Layer 2"><g id="Layer_1-2" data-name="Layer 1"><path class="cls-1" d="M48.56,46a2.48,2.48,0,0,0-.74-1.78L34.75,31.17a19.39,19.39,0,1,0-3.58,3.58l13,13a2.6,2.6,0,0,0,3.25.41A2.53,2.53,0,0,0,48.56,46ZM10.66,30.75a14.33,14.33,0,1,1,17.45,0A14.28,14.28,0,0,1,10.66,30.75Z"/><path class="cls-1" d="M19.38,8.63A10.75,10.75,0,1,0,30.13,19.38,10.75,10.75,0,0,0,19.38,8.63Zm0,17.15a6.41,6.41,0,1,1,6.4-6.4A6.41,6.41,0,0,1,19.38,25.78Z"/></g></g></svg>