<svg xmlns="http://www.w3.org/2000/svg" viewBox="0 0 31.68 61.37"><defs><style>.cls-1{fill:#747987;}</style></defs><g id="Layer_2" data-name="Layer 2"><g id="Layer_1-2" data-name="Layer 1"><path class="cls-1" d="M16.77,0H14.91c-4.43,0-8,4.8-8,10.7V27.18c0,5.89,3.6,10.69,8,10.69h1.86c4.42,0,8-4.8,8-10.69V10.7C24.79,4.8,21.19,0,16.77,0Zm3.9,27.18c0,2.87-1.75,5.2-3.9,5.2H14.91c-2.15,0-3.91-2.33-3.91-5.2V10.7c0-2.87,1.76-5.21,3.91-5.21h1.86c2.15,0,3.9,2.34,3.9,5.21Z"/><path class="cls-1" d="M20.67,10.7V27.18c0,2.87-1.75,5.2-3.9,5.2H14.91c-2.15,0-3.91-2.33-3.91-5.2V10.7c0-2.87,1.76-5.21,3.91-5.21h1.86C18.92,5.49,20.67,7.83,20.67,10.7Z"/><path class="cls-1" d="M31.68,26c0-1.52-.93-2.75-2.07-2.75S27.55,24.45,27.55,26c0,8.61-5.25,15.61-11.71,15.61S4.12,34.58,4.12,26c0-1.52-.92-2.75-2.06-2.75S0,24.45,0,26c0,10.7,6,19.55,13.78,20.9v9H6.27c-1.14,0-2.06,1.23-2.06,2.75s.92,2.75,2.06,2.75H25.4c1.14,0,2.06-1.23,2.06-2.75s-.92-2.75-2.06-2.75H17.9v-9C25.66,45.52,31.68,36.67,31.68,26Z"/></g></g></svg>