<svg xmlns="http://www.w3.org/2000/svg" viewBox="0 0 151.81 151.81"><defs><style>.cls-1{fill:#f62016;}.cls-2{fill:#fff;}</style></defs><g id="Layer_2" data-name="Layer 2"><g id="Layer_1-2" data-name="Layer 1"><circle class="cls-1" cx="75.9" cy="75.9" r="75.9"/><path class="cls-2" d="M93,54H58.86a6.7,6.7,0,0,0-6.69,6.69V94.81a6.7,6.7,0,0,0,6.69,6.69H93a6.7,6.7,0,0,0,6.69-6.69V60.72A6.7,6.7,0,0,0,93,54Zm1.94,40.78A1.94,1.94,0,0,1,93,96.75H58.86a1.94,1.94,0,0,1-1.94-1.94V60.72a1.94,1.94,0,0,1,1.94-1.94H93a1.94,1.94,0,0,1,1.94,1.94Z"/><path class="cls-2" d="M87.35,64.69H64.52a2.37,2.37,0,1,0,0,4.74H87.35a2.37,2.37,0,0,0,0-4.74Z"/><path class="cls-2" d="M87.35,75.37H64.52a2.37,2.37,0,1,0,0,4.74H87.35a2.37,2.37,0,1,0,0-4.74Z"/><path class="cls-2" d="M87.35,86.05H64.52a2.37,2.37,0,1,0,0,4.74H87.35a2.37,2.37,0,0,0,0-4.74Z"/></g></g></svg>