<svg xmlns="http://www.w3.org/2000/svg" viewBox="0 0 42.38 42.38"><defs><style>.cls-1{fill:#dbdddd;}</style></defs><g id="Layer_2" data-name="Layer 2"><g id="Layer_1-2" data-name="Layer 1"><path class="cls-1" d="M21.19,0A21.19,21.19,0,1,0,42.38,21.19,21.22,21.22,0,0,0,21.19,0Zm0,38.08A16.89,16.89,0,1,1,38.08,21.19,16.91,16.91,0,0,1,21.19,38.08Z"/><path class="cls-1" d="M21.19,4.3A16.89,16.89,0,1,0,38.08,21.19,16.9,16.9,0,0,0,21.19,4.3Zm2.15,16.89s0,.1,0,.15a2.59,2.59,0,0,1-.09.4,1.65,1.65,0,0,1-.16.44,1.07,1.07,0,0,1-.15.22,2.2,2.2,0,0,1-.41.45l-.06.06-9.69,7a2.15,2.15,0,0,1-2.5-3.49L19,20.06V9.26a2.15,2.15,0,1,1,4.3,0Z"/></g></g></svg>