<svg xmlns="http://www.w3.org/2000/svg" viewBox="0 0 25.44 25.44"><defs><style>.cls-1{fill:#b6b9ba;opacity:0.5;}</style></defs><g id="Layer_2" data-name="Layer 2"><g id="Layer_1-2" data-name="Layer 1"><path class="cls-1" d="M25.44,12.72A12.7,12.7,0,0,0,21,3.1a21.45,21.45,0,0,0-5.27,4,.93.93,0,0,1,.14.14c4,4.25,7.54,10.31,6.94,13.22A12.65,12.65,0,0,0,25.44,12.72Z"/><path class="cls-1" d="M13.35,4.19a13.54,13.54,0,0,1,6.27-2.14,12.68,12.68,0,0,0-13.16-.4c.7.61,3,.83,5.82,2.55A1,1,0,0,0,13.35,4.19Z"/><path class="cls-1" d="M9.72,7.19,9.86,7A29,29,0,0,0,5.72,3.69a1.92,1.92,0,0,0-1.59-.33A12.7,12.7,0,0,0,2.91,20.82C1.82,18.12,5.54,11.63,9.72,7.19Z"/><path class="cls-1" d="M12.81,9.75h0c-4.2,3.71-10,9.25-9.15,11.89a12.7,12.7,0,0,0,18,.17l.47-.49C22.59,18.54,17,13.54,12.81,9.75Z"/></g></g></svg>