<svg xmlns="http://www.w3.org/2000/svg" viewBox="0 0 19.22 19.22"><defs><style>.cls-1{fill:#f62016;}</style></defs><g id="Layer_2" data-name="Layer 2"><g id="Layer_1-2" data-name="Layer 1"><path class="cls-1" d="M16.66,6.68l.24-.22a2.93,2.93,0,1,0-4.15-4.14l-.21.24L10.24.26A.89.89,0,0,0,9,.26l-2.3,2.3-.22-.24a2.94,2.94,0,0,0-4.15,0,3,3,0,0,0,0,4.09,1.94,1.94,0,0,0,.28.29L.26,9A.86.86,0,0,0,0,9.61a.88.88,0,0,0,.26.63l2.3,2.3-.24.21A2.93,2.93,0,1,0,6.46,16.9l.22-.24L9,19a.87.87,0,0,0,1.26,0l3-3A.89.89,0,0,0,13,14.49a1,1,0,0,1-.32-.23,1.13,1.13,0,0,1,0-1.61h0a1.15,1.15,0,0,1,1.61,0,1,1,0,0,1,.23.32.92.92,0,0,0,.65.53.88.88,0,0,0,.8-.25l3-3a.92.92,0,0,0,.26-.63A.9.9,0,0,0,19,9ZM15.4,11.27a3,3,0,0,0-4,.11h0a2.93,2.93,0,0,0-.11,4L9.61,17.06,7,14.49a.89.89,0,0,0-.63-.26.86.86,0,0,0-.28,0,.9.9,0,0,0-.61.72,1.1,1.1,0,0,1-.32.64,1.15,1.15,0,0,1-1.62,0,1.13,1.13,0,0,1-.34-.81A1.14,1.14,0,0,1,3.58,14a1.09,1.09,0,0,1,.64-.32.89.89,0,0,0,.51-1.52L2.16,9.61,4.73,7a.88.88,0,0,0,.21-.91.89.89,0,0,0-.71-.61.82.82,0,0,1-.59-.26,1.22,1.22,0,0,1-.06-1.68,1.13,1.13,0,0,1,1.93.64A.89.89,0,0,0,7,4.73L9.61,2.16l2.58,2.57A.9.9,0,0,0,13.1,5a.87.87,0,0,0,.6-.73,1.14,1.14,0,0,1,1.94-.64,1.09,1.09,0,0,1,.33.8,1.15,1.15,0,0,1-.34.82,1.1,1.1,0,0,1-.64.32.92.92,0,0,0-.72.61.9.9,0,0,0,.22.91l2.57,2.57Z"/></g></g></svg>