<svg xmlns="http://www.w3.org/2000/svg" viewBox="0 0 92.86 92.86"><defs><style>.cls-1{fill:#cacccc;}.cls-2{fill:#fff;}</style></defs><g id="Layer_2" data-name="Layer 2"><g id="Layer_1-2" data-name="Layer 1"><circle class="cls-1" cx="46.43" cy="46.43" r="46.43"/><path class="cls-2" d="M46.43,44.36A17.87,17.87,0,0,0,28.58,62.21V63.3a1.79,1.79,0,0,0,1.78,1.79H62.49a1.79,1.79,0,0,0,1.79-1.79V62.21A17.87,17.87,0,0,0,46.43,44.36ZM32.17,61.52a14.28,14.28,0,0,1,28.52,0Z"/><path class="cls-2" d="M46.43,43.11a7.67,7.67,0,1,0-7.67-7.67A7.68,7.68,0,0,0,46.43,43.11Zm0-11.77a4.1,4.1,0,1,1-4.1,4.1A4.11,4.11,0,0,1,46.43,31.34Z"/></g></g></svg>