<svg xmlns="http://www.w3.org/2000/svg" viewBox="0 0 25.44 25.44"><defs><style>.cls-1{opacity:0.5;}.cls-2{fill:#b6b9ba;fill-rule:evenodd;}</style></defs><g id="Layer_2" data-name="Layer 2"><g id="Layer_1-2" data-name="Layer 1"><g id="black" class="cls-1"><g id="playstation"><path class="cls-2" d="M9.54,22.54V0s8.72,1.87,9.88,6.38-.65,7.42-1.29,7.51A1.89,1.89,0,0,1,16,12.58V6L13.53,5v20.4Zm5.63-.31v2.49s8.68-3.56,10-5-3.15-5.1-5.57-4.39a10.41,10.41,0,0,0-4.46,1.33s0,2.46,0,2.46l5.47-1.65,2.08,1.18ZM5,22.78c-2.66,0-5-1-5-3s3.58-4.15,8-5.1v2.81L4.13,19s-.8,1.3.27,1.34A7.27,7.27,0,0,0,8,19.74v2.5S7.64,22.82,5,22.78Z"/></g></g></g></g></svg>