<svg xmlns="http://www.w3.org/2000/svg" viewBox="0 0 19.31 19.31"><defs><style>.cls-1{fill:#f62016;}</style></defs><g id="Layer_2" data-name="Layer 2"><g id="Layer_1-2" data-name="Layer 1"><path class="cls-1" d="M9.65,0a9.66,9.66,0,1,0,9.66,9.65A9.66,9.66,0,0,0,9.65,0Zm0,17.76a8.11,8.11,0,1,1,8.11-8.11A8.12,8.12,0,0,1,9.65,17.76Z"/><path class="cls-1" d="M9.65,2.52A7.14,7.14,0,0,0,2.52,9.65a6.66,6.66,0,0,0,.08,1v0s0,0,0,0a7.13,7.13,0,0,0,7,6.07h0a7.13,7.13,0,0,0,7-6.07v-.06a6.66,6.66,0,0,0,.08-1A7.14,7.14,0,0,0,9.65,2.52Zm0,11.16A6.42,6.42,0,0,0,4.08,9.84c0-.06,0-.12,0-.19a6,6,0,0,1,0-.74,13.73,13.73,0,0,1,11.06,0,4.52,4.52,0,0,1,.06.74c0,.07,0,.13,0,.19A6.43,6.43,0,0,0,9.65,13.68Zm0-9.61A5.58,5.58,0,0,1,14.57,7,15.18,15.18,0,0,0,4.74,7,5.57,5.57,0,0,1,9.65,4.07ZM4.36,11.41a5.27,5.27,0,0,1,4.23,3.73A5.6,5.6,0,0,1,4.36,11.41Zm6.35,3.73A5.2,5.2,0,0,1,15,11.41,5.6,5.6,0,0,1,10.71,15.14Z"/></g></g></svg>