<svg xmlns="http://www.w3.org/2000/svg" viewBox="0 0 151.81 151.81"><defs><style>.cls-1{fill:#fff;}.cls-2{fill:#b6b9ba;}</style></defs><g id="Layer_2" data-name="Layer 2"><g id="Layer_1-2" data-name="Layer 1"><circle class="cls-1" cx="75.9" cy="75.9" r="75.9"/><path class="cls-2" d="M99.6,88.91c0,3.31-2.2,6-4.9,6H55.53c-2.7,0-4.9-2.69-4.9-6s2.2-6,4.9-6H94.7C97.4,82.9,99.6,85.6,99.6,88.91ZM90.1,69.66v7h-30v-7a2,2,0,0,1,1.81-2.21H88.3A2,2,0,0,1,90.1,69.66ZM68.84,61.19v-7.1a2.28,2.28,0,0,1,2-2.48H81.39v9.58ZM95.21,76.72V69.66c0-4.67-3.1-8.47-6.91-8.47H86.5V55.37a1.66,1.66,0,0,1-1.29-1.63V51.8a1.67,1.67,0,0,1,1.29-1.63V48.48a2.89,2.89,0,0,0-2.56-3.12H70.86c-3.93,0-7.13,3.92-7.13,8.73v7.1H61.92c-3.8,0-6.9,3.8-6.9,8.47v7.06c-5.28.33-9.49,5.64-9.49,12.18,0,6.77,4.48,12.27,10,12.27H94.7c5.51,0,10-5.5,10-12.27C104.7,82.36,100.49,77.05,95.21,76.72Z"/><path class="cls-2" d="M98.33,51.8v1.94a1.67,1.67,0,0,1-1.68,1.68H86.89a1.27,1.27,0,0,1-.39-.05,1.66,1.66,0,0,1-1.29-1.63V51.8a1.7,1.7,0,0,1,1.68-1.68h9.76A1.68,1.68,0,0,1,98.33,51.8Z"/><path class="cls-2" d="M90.47,85.46c-1.62,0-2.94,1.62-2.94,3.6s1.32,3.6,2.94,3.6,2.94-1.61,2.94-3.6S92.09,85.46,90.47,85.46Z"/><path class="cls-2" d="M75.11,85.46c-1.62,0-2.93,1.62-2.93,3.6s1.31,3.6,2.93,3.6,2.94-1.61,2.94-3.6S76.74,85.46,75.11,85.46Z"/><path class="cls-2" d="M82.79,85.46c-1.62,0-2.93,1.62-2.93,3.6s1.31,3.6,2.93,3.6,2.94-1.61,2.94-3.6S84.41,85.46,82.79,85.46Z"/><path class="cls-2" d="M59.76,85.46c-1.63,0-2.94,1.62-2.94,3.6s1.31,3.6,2.94,3.6,2.93-1.61,2.93-3.6S61.38,85.46,59.76,85.46Z"/><path class="cls-2" d="M67.43,85.46c-1.62,0-2.93,1.62-2.93,3.6s1.31,3.6,2.93,3.6,2.94-1.61,2.94-3.6S69.06,85.46,67.43,85.46Z"/></g></g></svg>