<svg xmlns="http://www.w3.org/2000/svg" viewBox="0 0 68.28 73.38"><defs><style>.cls-1{fill:#b6b9ba;}</style></defs><g id="Layer_2" data-name="Layer 2"><g id="Layer_1-2" data-name="Layer 1"><path class="cls-1" d="M64.35,42,63,41.23a5.24,5.24,0,0,1,0-9.08l1.38-.8a7.85,7.85,0,0,0,2.87-10.74L64.6,16.07A7.87,7.87,0,0,0,53.86,13.2L52.49,14a5.25,5.25,0,0,1-7.87-4.54V7.86A7.87,7.87,0,0,0,36.76,0H31.52a7.87,7.87,0,0,0-7.86,7.86v1.6A5.24,5.24,0,0,1,15.8,14l-1.38-.79A7.87,7.87,0,0,0,3.68,16.07L1.06,20.61A7.85,7.85,0,0,0,3.93,31.35l1.38.8a5.23,5.23,0,0,1,0,9.08L3.94,42A7.86,7.86,0,0,0,1.06,52.76L3.68,57.3a7.87,7.87,0,0,0,10.74,2.88l1.38-.79a5.24,5.24,0,0,1,7.86,4.53v1.6a7.87,7.87,0,0,0,7.86,7.86h5.24a7.87,7.87,0,0,0,7.86-7.86v-1.6a5.25,5.25,0,0,1,7.87-4.54l1.37.8A7.87,7.87,0,0,0,64.6,57.3l2.62-4.54A7.85,7.85,0,0,0,64.35,42ZM34.14,49.79a13.1,13.1,0,1,1,13.1-13.1A13.12,13.12,0,0,1,34.14,49.79Z"/></g></g></svg>