<svg xmlns="http://www.w3.org/2000/svg" viewBox="0 0 37.24 39.84"><defs><style>.cls-1{fill:#51ed63;}</style></defs><g id="Layer_2" data-name="Layer 2"><g id="Layer_1-2" data-name="Layer 1"><g id="_1" data-name=" 1"><path class="cls-1" d="M3.31,29.08A1.49,1.49,0,0,1,2,28.26,18.62,18.62,0,0,1,31.78,6.75a1.49,1.49,0,0,1-2.1,2.11,15.64,15.64,0,0,0-25,18.06,1.49,1.49,0,0,1-.66,2,1.57,1.57,0,0,1-.67.16Z"/><path class="cls-1" d="M18.62,38.51A18.51,18.51,0,0,1,5.46,33.07,1.48,1.48,0,1,1,7.56,31a15.64,15.64,0,0,0,25-18.07,1.49,1.49,0,0,1,2.66-1.33A18.6,18.6,0,0,1,18.62,38.51Z"/><path class="cls-1" d="M24.39,9.92a1.48,1.48,0,0,1-.14-3L29,6.49,28,1.76a1.48,1.48,0,0,1,2.91-.58l1.27,6.34A1.5,1.5,0,0,1,31,9.27l-.14,0-6.34.63Z"/><path class="cls-1" d="M7.77,39.84a1.49,1.49,0,0,1-1.45-1.19L5.05,32.31a1.5,1.5,0,0,1,1.17-1.75l.15,0,6.33-.63a1.49,1.49,0,1,1,.3,3l-4.71.47,1,4.72a1.49,1.49,0,0,1-1.17,1.75Z"/></g></g></g></svg>