<svg xmlns="http://www.w3.org/2000/svg" viewBox="0 0 37.05 42.74"><defs><style>.cls-1{fill:#b6b9ba;}</style></defs><g id="Layer_2" data-name="Layer 2"><g id="Layer_1-2" data-name="Layer 1"><path class="cls-1" d="M29.92,42.74H7.12a4.27,4.27,0,0,1-4.27-4.27V11.4a1.43,1.43,0,1,1,2.85,0V38.47a1.42,1.42,0,0,0,1.42,1.42h22.8a1.42,1.42,0,0,0,1.43-1.42V11.4a1.43,1.43,0,1,1,2.85,0V38.47A4.28,4.28,0,0,1,29.92,42.74Z"/><path class="cls-1" d="M35.62,8.55H1.42a1.43,1.43,0,0,1,0-2.85h34.2a1.43,1.43,0,1,1,0,2.85Z"/><path class="cls-1" d="M24.22,8.55A1.43,1.43,0,0,1,22.8,7.12V2.85H14.25V7.12a1.43,1.43,0,1,1-2.85,0V1.42A1.43,1.43,0,0,1,12.82,0h11.4a1.43,1.43,0,0,1,1.43,1.42v5.7A1.43,1.43,0,0,1,24.22,8.55Z"/><path class="cls-1" d="M18.52,35.62A1.43,1.43,0,0,1,17.1,34.2v-20a1.43,1.43,0,1,1,2.85,0v20A1.43,1.43,0,0,1,18.52,35.62Z"/><path class="cls-1" d="M25.65,32.77a1.43,1.43,0,0,1-1.43-1.42V17.1a1.43,1.43,0,1,1,2.85,0V31.35A1.43,1.43,0,0,1,25.65,32.77Z"/><path class="cls-1" d="M11.4,32.77A1.43,1.43,0,0,1,10,31.35V17.1a1.43,1.43,0,1,1,2.85,0V31.35A1.42,1.42,0,0,1,11.4,32.77Z"/></g></g></svg>