<svg xmlns="http://www.w3.org/2000/svg" viewBox="0 0 151.81 151.81"><defs><style>.cls-1{fill:#f62016;}.cls-2{fill:#fff;}</style></defs><g id="Layer_2" data-name="Layer 2"><g id="Layer_1-2" data-name="Layer 1"><circle class="cls-1" cx="75.9" cy="75.9" r="75.9"/><path class="cls-2" d="M99.67,102a10.71,10.71,0,0,1-9.89-6.56L87.32,89.6H64.49L62,95.42a10.74,10.74,0,0,1-20.31-6.78L47.55,65.3a10,10,0,0,1,9.77-7.62H73.26V51a7,7,0,0,1,7-7H89.4a1,1,0,0,0,1-1V39.75a2.64,2.64,0,0,1,5.28,0V43a6.27,6.27,0,0,1-6.26,6.27H80.29A1.74,1.74,0,0,0,78.55,51v6.66H94.49a10.06,10.06,0,0,1,9.77,7.62l5.83,23.34A10.75,10.75,0,0,1,99.67,102ZM62.74,84.31H89.07a2.64,2.64,0,0,1,2.43,1.62l3.15,7.43A5.45,5.45,0,0,0,105,89.92L99.13,66.58A4.77,4.77,0,0,0,94.49,63H57.32a4.77,4.77,0,0,0-4.64,3.62L46.85,89.92a5.45,5.45,0,0,0,10.31,3.44l3.14-7.43A2.66,2.66,0,0,1,62.74,84.31Z"/><path class="cls-2" d="M61.73,80.46a2.64,2.64,0,0,1-2.64-2.64V69.48a2.64,2.64,0,0,1,5.28,0v8.34A2.64,2.64,0,0,1,61.73,80.46Z"/><path class="cls-2" d="M65.9,76.29H57.56a2.64,2.64,0,0,1,0-5.28H65.9a2.64,2.64,0,0,1,0,5.28Z"/><circle class="cls-2" cx="89.87" cy="69.26" r="2.09"/><path class="cls-2" d="M89.87,72.67a3.41,3.41,0,1,1,3.41-3.41A3.41,3.41,0,0,1,89.87,72.67Zm0-4.18a.77.77,0,1,0,.77.77A.77.77,0,0,0,89.87,68.49Z"/><circle class="cls-2" cx="85.19" cy="73.55" r="2.09"/><path class="cls-2" d="M85.19,77a3.41,3.41,0,1,1,3.41-3.4A3.41,3.41,0,0,1,85.19,77Zm0-4.17a.77.77,0,1,0,.77.77A.77.77,0,0,0,85.19,72.78Z"/><circle class="cls-2" cx="94.05" cy="73.55" r="2.09"/><path class="cls-2" d="M94.05,77a3.41,3.41,0,1,1,3.41-3.4A3.41,3.41,0,0,1,94.05,77Zm0-4.17a.77.77,0,1,0,.76.77A.76.76,0,0,0,94.05,72.78Z"/><circle class="cls-2" cx="89.87" cy="77.83" r="2.09"/><path class="cls-2" d="M89.87,81.24a3.41,3.41,0,1,1,3.41-3.41A3.41,3.41,0,0,1,89.87,81.24Zm0-4.17a.77.77,0,1,0,0,1.53.77.77,0,1,0,0-1.53Z"/></g></g></svg>